<!--?xml version="1.0" encoding="utf-8"?-->
<!-- Generator: Adobe Illustrator 18.1.1, SVG Export Plug-In . SVG Version: 6.00 Build 0)  -->

<svg version="1.1" id="_x32_" xmlns="http://www.w3.org/2000/svg" xmlns:xlink="http://www.w3.org/1999/xlink" x="0px" y="0px" viewBox="0 0 512 512" style="width: 256px; height: 256px; opacity: 1;" xml:space="preserve">
<style type="text/css">
	.st0{fill:#4B4B4B;}
</style>
<g>
	<path class="st0" d="M313.933,93.647c-12.9,0-23.335,10.452-23.335,23.335c0,2.314,0.352,4.522,0.96,6.626l-31.098,23.24
		c-5.473-4.37-12.388-6.994-19.926-6.994c-3.617,0-7.075,0.624-10.324,1.736l-25.272-38.229c1.872-3.001,2.993-6.546,2.993-10.355
		c0-10.788-8.755-19.543-19.543-19.543c-10.787,0-19.526,8.755-19.526,19.543c0,10.795,8.739,19.542,19.526,19.542
		c1.041,0,2.065-0.104,3.057-0.272l25.304,38.236c-2.753,3.073-4.914,6.674-6.321,10.644l-44.896-3.802
		c-2.704-11.388-12.916-19.87-25.128-19.87c-14.277,0-25.849,11.572-25.849,25.848s11.572,25.857,25.849,25.857
		c10.692,0,19.846-6.483,23.784-15.726l44.878,3.802c1.281,7.514,5.186,14.124,10.74,18.862l-10.996,22.792
		c-0.736-0.072-1.472-0.112-2.24-0.112c-12.884,0-23.336,10.443-23.336,23.336c0,12.892,10.452,23.343,23.336,23.343
		c12.9,0,23.352-10.451,23.352-23.343c0-6.29-2.497-11.988-6.546-16.19l10.996-22.784c1.985,0.393,4.05,0.616,6.162,0.616
		c9.715,0,18.406-4.353,24.264-11.196l27.737,13.469c0.08,9.971,8.178,18.037,18.182,18.037c10.035,0,18.182-8.146,18.182-18.198
		c0-10.035-8.147-18.173-18.182-18.173c-4.193,0-8.034,1.416-11.107,3.801l-27.737-13.476c0.4-2.017,0.624-4.097,0.624-6.234
		c0-4.249-0.848-8.306-2.353-12.02l31.098-23.239c3.665,2.377,8.002,3.77,12.692,3.77c12.9,0,23.352-10.452,23.352-23.344
		C337.285,104.099,326.833,93.647,313.933,93.647z" style="fill: rgb(18, 156, 42);"></path>
	<path class="st0" d="M476.962,278.732l-33.787-71.655v-0.936C443.175,92.479,350.681,0,237.012,0
		C123.343,0,30.848,92.479,30.848,206.14c0,51.112,15.125,95.92,47.472,140.222v70.903c0,17.742,10.531,33.667,26.856,40.581
		l1.345,0.568l1.392,0.44l162.821,50.312c4.978,1.88,10.196,2.833,15.541,2.833c8.66,0,17.062-2.529,24.297-7.306
		c12.371-8.195,19.766-21.926,19.766-36.756v-39.517h61.588c24.312,0,44.078-19.766,44.078-44.062v-37.284l20.359-9.884
		C477.987,326.667,487.222,300.443,476.962,278.732z M443.768,311.246l-28.026,13.605c-5.25,2.553-8.578,7.874-8.578,13.716v45.791
		c0,8.403-6.819,15.221-15.237,15.221h-75.208c-8.403,0-15.222,6.842-15.222,15.244v53.114c0,5.098-2.561,9.876-6.834,12.7
		c-2.529,1.664-5.442,2.521-8.388,2.521c-2.016,0-4.049-0.4-5.97-1.216l-163.878-50.649c-5.634-2.384-9.267-7.914-9.267-14.028
		v-80.546c-33.963-43.655-47.472-84.876-47.472-130.579c0-97.904,79.386-177.298,177.322-177.298
		c97.92,0,177.322,79.394,177.322,177.298c0,2.361-0.096,4.69-0.192,7.018l36.748,77.89
		C454.443,298.594,451.274,307.598,443.768,311.246z" style="fill: rgb(18, 156, 42);"></path>
</g>
</svg>
